# xmcd CD database file
#
# Track frame offsets:
#	150
#	25402
#	54980
#	88760
#	119955
#	138167
#	174470
#	207317
#	228205
#	245612
#
# Disc length: 3575 seconds
#
# Revision: 0
# Processed by: cddbd v1.5.2PL0 Copyright (c) Steve Scherf et al.
# Submitted via: CDex 1.70beta2
#
DISCID=8a0df50a
DTITLE=James Carter - Chasin' The Gypsy
DYEAR=2000
DGENRE=Jazz
TTITLE0=Nuages (Clouds)
TTITLE1=La Dernière (The Last Shepherdess)
TTITLE2=Manoir De Mes Rêves（Django's Castle)
TTITLE3=Artillerie Lourde (Heavy Artillery)
TTITLE4=Chasin' The Gypsy
TTITLE5=Oriental Shuffle
TTITLE6=I'll Never Be The Same
TTITLE7=Avalon
TTITLE8=Imari's Lullaby
TTITLE9=Passionette (Bonus Track)
EXTD=YEAR: 2000
EXTT0=
EXTT1=
EXTT2=
EXTT3=
EXTT4=
EXTT5=
EXTT6=
EXTT7=
EXTT8=
EXTT9=
PLAYORDER=
